<svg viewBox="0 0 128 226" fill="none" xmlns="http://www.w3.org/2000/svg"><path d="M46.9645 62.2707C63.1962 54.7409 70.2505 35.4784 62.7206 19.2467C55.1908 3.01504 35.9284 -4.03921 19.6967 3.49059C3.46502 11.0204 -3.58924 30.2829 3.94057 46.5146C11.4704 62.7462 30.7329 69.8005 46.9645 62.2707Z" fill="#1C5E89"/><path opacity="0.2085" fill-rule="evenodd" clip-rule="evenodd" d="M51.5507 6.125L37.7132 27.275L40.5257 29.075L54.2507 8.15C53.3507 7.475 52.4507 6.8 51.5507 6.125Z" fill="black"/><path fill-rule="evenodd" clip-rule="evenodd" d="M27.8132 42.4624L42.1007 20.5249L53.5757 26.8249C56.8382 28.6249 59.4257 31.4374 61.1132 34.8124L81.8132 79.1374L43.9007 96.6874L26.5757 59.4499C23.9882 53.9374 24.4382 47.5249 27.8132 42.4624Z" fill="#C6775B"/><path fill-rule="evenodd" clip-rule="evenodd" d="M56.8383 86.0001L60.4383 84.8751C81.5883 78.0126 104.201 89.6001 111.063 110.638C117.926 131.788 106.338 154.4 85.3008 161.263L81.7008 162.388C60.5508 169.25 37.9383 157.663 31.0758 136.625C24.2133 115.588 35.8008 92.8626 56.8383 86.0001Z" fill="#D93868"/><path fill-rule="evenodd" clip-rule="evenodd" d="M41.5382 164.863C35.8007 165.875 31.8632 171.388 32.8757 177.238C33.8882 182.975 39.4007 186.913 45.2507 185.9C50.9882 184.888 54.9257 179.375 53.9132 173.525C52.7882 167.675 47.2757 163.85 41.5382 164.863Z" fill="#C6775C"/><path fill-rule="evenodd" clip-rule="evenodd" d="M97.4508 162.163C91.7133 163.175 87.7758 168.688 88.7883 174.538C89.8008 180.275 95.3133 184.213 101.163 183.2C106.901 182.188 110.838 176.675 109.826 170.825C108.813 164.975 103.301 161.038 97.4508 162.163Z" fill="#C6775C"/><path fill-rule="evenodd" clip-rule="evenodd" d="M95.0882 104.9C101.613 104.9 106.901 110.188 106.901 116.713V152.713C106.901 159.238 101.613 164.525 95.0882 164.525C88.5632 164.525 83.2757 159.238 83.2757 152.713V116.713C83.2757 110.188 88.5632 104.9 95.0882 104.9Z" fill="#D93868"/><path d="M36.9257 57.2001L34.9007 50.0001C40.4132 48.4251 45.1382 48.2001 49.1882 49.1001L47.3882 56.3001C44.6882 55.7376 41.0882 55.9626 36.9257 57.2001Z" fill="#C6775C"/><path fill-rule="evenodd" clip-rule="evenodd" d="M36.2507 58.5499L60.4382 47.2999C67.5257 44.0374 75.8507 47.0749 79.1132 54.1624C82.3757 61.2499 79.3382 69.5749 72.2507 72.8374L48.1757 84.0874C41.0882 87.3499 32.7632 84.3124 29.5007 77.2249C26.1257 70.1374 29.1632 61.8124 36.2507 58.5499Z" fill="#3D3D3D"/><path fill-rule="evenodd" clip-rule="evenodd" d="M49.4133 48.425L53.2383 46.625C54.7008 45.95 56.5008 46.625 57.1758 48.0875V48.2C57.8508 49.6625 57.1758 51.4625 55.7133 52.1375L51.8883 53.9375C50.4258 54.6125 48.6258 53.9375 47.9508 52.475V52.3625C47.2758 50.9 47.9508 49.1 49.4133 48.425Z" fill="#C6775B"/><path d="M40.0758 48.1999C39.8508 48.1999 39.5133 48.0874 39.4008 47.8624C39.0633 47.4124 39.0633 46.8499 39.5133 46.5124L43.4508 43.0249L38.8383 42.6874C38.2758 42.6874 37.9383 42.2374 37.9383 41.6749C37.9383 41.1124 38.3883 40.7749 38.9508 40.7749L45.9258 41.2249C46.2633 41.2249 46.6008 41.4499 46.7133 41.8999C46.8258 42.2374 46.7133 42.6874 46.4883 42.9124L40.8633 47.9749C40.5258 48.1999 40.3008 48.1999 40.0758 48.1999Z" fill="#A3563B"/><path d="M49.7506 41.4499C49.4131 41.4499 49.0756 41.2249 48.8506 40.8874C48.7381 40.5499 48.7381 40.0999 49.0756 39.8749L53.8006 34.8124C54.1381 34.4749 54.8131 34.3624 55.1506 34.8124C55.4881 35.1499 55.6006 35.8249 55.1506 36.1624L52.0006 39.5374L57.2881 39.4249C57.8506 39.4249 58.1881 39.8749 58.3006 40.3249C58.3006 40.8874 57.8506 41.3374 57.4006 41.3374L49.7506 41.4499Z" fill="#A3563B"/><path d="M41.4257 79.3626C40.3007 79.3626 39.2882 78.9126 38.5007 78.0126C38.1632 77.6751 37.9382 77.2251 37.8257 76.7751L36.1382 72.1626C34.3382 67.1001 36.9257 61.4751 41.9882 59.5626L48.4007 57.2001C50.8757 56.3001 53.5757 56.4126 55.9382 57.5376C58.3007 58.6626 60.1007 60.5751 61.0007 63.0501L62.6882 67.5501C63.0257 68.5626 63.0257 69.5751 62.5757 70.4751C62.1257 71.3751 61.3382 72.0501 60.4382 72.5001C59.9882 72.7251 59.4257 72.7251 58.9757 72.7251C54.4757 72.5001 52.3382 72.9501 51.3257 73.2876C50.2007 73.6251 48.0632 74.8626 44.0132 78.3501C43.2257 79.0251 42.3257 79.3626 41.4257 79.3626ZM43.1132 62.6001C39.7382 63.8376 37.9382 67.5501 39.1757 70.9251L40.8632 75.5376C40.8632 75.6501 40.8632 75.6501 40.9757 75.6501C41.2007 75.8751 41.5382 75.8751 41.7632 75.7626C45.3632 72.6126 48.0632 70.8126 50.0882 70.0251C52.0007 69.3501 54.9257 69.1251 58.9757 69.2376C59.0882 69.2376 59.0882 69.2376 59.2007 69.2376C59.4257 69.1251 59.4257 69.0126 59.5382 68.9001C59.5382 68.7876 59.6507 68.6751 59.5382 68.4501L57.8507 63.9501C57.2882 62.2626 56.0507 61.0251 54.4757 60.2376C52.9007 59.4501 51.1007 59.4501 49.5257 60.0126L43.1132 62.6001Z" fill="#3D3D3D"/><path d="M41.4257 79.3626C40.3007 79.3626 39.2882 78.9126 38.5007 78.0126C38.1632 77.6751 37.9382 77.2251 37.8257 76.7751L36.1382 72.1626C34.3382 67.1001 36.9257 61.4751 41.9882 59.5626L48.4007 57.2001C50.8757 56.3001 53.5757 56.4126 55.9382 57.5376C58.3007 58.6626 60.1007 60.5751 61.0007 63.0501L62.6882 67.5501C63.0257 68.5626 63.0257 69.5751 62.5757 70.4751C62.1257 71.3751 61.3382 72.0501 60.4382 72.5001C59.9882 72.7251 59.4257 72.7251 58.9757 72.7251C54.4757 72.5001 52.3382 72.9501 51.3257 73.2876C50.2007 73.6251 48.0632 74.8626 44.0132 78.3501C43.2257 79.0251 42.3257 79.3626 41.4257 79.3626ZM43.1132 62.6001C39.7382 63.8376 37.9382 67.5501 39.1757 70.9251L40.8632 75.5376C40.8632 75.6501 40.8632 75.6501 40.9757 75.6501C41.2007 75.8751 41.5382 75.8751 41.7632 75.7626C45.3632 72.6126 48.0632 70.8126 50.0882 70.0251C52.0007 69.3501 54.9257 69.1251 58.9757 69.2376C59.0882 69.2376 59.0882 69.2376 59.2007 69.2376C59.4257 69.1251 59.4257 69.0126 59.5382 68.9001C59.5382 68.7876 59.6507 68.6751 59.5382 68.4501L57.8507 63.9501C57.2882 62.2626 56.0507 61.0251 54.4757 60.2376C52.9007 59.4501 51.1007 59.4501 49.5257 60.0126L43.1132 62.6001Z" fill="#3D3D3D"/><path fill-rule="evenodd" clip-rule="evenodd" d="M42.5508 61.1375L48.9633 58.775C53.2383 57.2 57.8508 59.45 59.4258 63.6125L61.1133 68.1125C61.5633 69.2375 60.8883 70.475 59.7633 70.925C59.5383 71.0375 59.2008 71.0375 58.8633 71.0375C55.0383 70.8125 52.2258 71.0375 50.5383 71.7125C48.7383 72.3875 46.1508 74.1875 42.7758 77.1125C41.8758 77.9 40.5258 77.7875 39.7383 76.8875C39.5133 76.6625 39.4008 76.4375 39.2883 76.2125L37.6008 71.6C36.1383 67.325 38.3883 62.6 42.5508 61.1375Z" fill="#B53030"/><path d="M56.7258 71.0375C57.5133 70.25 57.7383 69.0125 57.2883 68C56.5008 66.0875 55.0383 64.625 53.2383 63.95C51.3258 63.1625 49.3008 63.1625 47.3883 63.95C43.4508 65.525 41.5383 69.9125 43.1133 73.7375C43.4508 74.6375 44.2383 75.2 45.0258 75.425C46.3758 74.3 47.6133 73.5125 48.6258 72.8375C48.6258 72.3875 48.6258 72.05 48.4008 71.6C48.0633 70.7 48.5133 69.575 49.5258 69.2375C49.9758 69.0125 50.5383 69.0125 50.9883 69.2375C51.4383 69.4625 51.7758 69.8 51.8883 70.1375C52.1133 70.5875 52.3383 70.925 52.7883 71.2625C53.9133 71.15 55.1508 71.0375 56.7258 71.0375Z" fill="#E63E3D"/><path fill-rule="evenodd" clip-rule="evenodd" d="M58.9758 71.0376C59.3133 71.0376 59.5383 71.0376 59.8758 70.9251C61.0008 70.4751 61.5633 69.2376 61.2258 68.1126L59.6508 63.7251C59.3133 63.7251 58.9758 63.8376 58.6383 63.9501L42.5508 71.4876C41.2008 72.1626 40.6383 73.7376 41.2008 75.0876L42.3258 77.4501C42.5508 77.3376 42.7758 77.2251 42.8883 77.1126C46.3758 74.1876 48.9633 72.3876 50.6508 71.7126C52.3383 71.1501 55.1508 70.9251 58.9758 71.0376Z" fill="white"/><path fill-rule="evenodd" clip-rule="evenodd" d="M86.9883 146.975C90.9258 146.525 94.5258 149.45 94.9758 153.387L97.9008 181.625C98.3508 185.562 95.4258 189.162 91.4883 189.612C87.5508 190.062 83.9508 187.137 83.5008 183.2L80.5758 154.962C80.1258 150.912 83.0508 147.425 86.9883 146.975Z" fill="#1C5E89"/><path fill-rule="evenodd" clip-rule="evenodd" d="M77.2009 215.262L81.5883 216.387C85.4133 217.4 89.4633 215.15 90.4758 211.325L97.7883 183.875C98.8008 180.05 96.5508 176 92.7258 174.988C88.9008 173.975 84.8508 176.225 83.8383 180.05L75.1759 211.887C74.8384 213.35 75.7384 214.812 77.2009 215.262Z" fill="#1C5E89"/><path fill-rule="evenodd" clip-rule="evenodd" d="M61.9007 147.875C65.7257 146.637 69.7757 148.662 71.0132 152.487L79.7882 179.487C81.0257 183.312 78.8882 187.362 75.1757 188.6C71.3507 189.837 67.3007 187.812 66.0632 183.987L57.2882 156.987C55.9382 153.275 58.0757 149.112 61.9007 147.875Z" fill="#1C5E89"/><path fill-rule="evenodd" clip-rule="evenodd" d="M59.4257 215.262L63.4757 216.387C67.3007 217.4 71.3507 215.15 72.3632 211.325L79.6757 183.875C80.6882 180.05 78.4382 176 74.6132 174.988C70.7882 173.975 66.7382 176.225 65.7257 180.05L57.2882 211.662C56.8382 213.237 57.8507 214.812 59.4257 215.262Z" fill="#1C5E89"/><path d="M112.526 129.763L41.0882 152.938C51.4382 163.063 66.9632 167.225 81.5882 162.5L85.1882 161.375C100.038 156.538 110.163 144.05 112.526 129.763Z" fill="#1C5E89"/><path fill-rule="evenodd" clip-rule="evenodd" d="M113.088 123.913L37.2631 148.55C39.2881 151.25 41.6506 153.613 44.2381 155.75L111.626 133.925C112.526 130.663 113.088 127.288 113.088 123.913Z" fill="#0D3A56"/><path d="M78.194 135.246L73.8071 136.671L76.7271 145.659L81.1141 144.234L78.194 135.246Z" fill="#1C5E89"/><path fill-rule="evenodd" clip-rule="evenodd" d="M90.8131 131.225L104.088 126.95C104.313 126.837 104.651 127.062 104.763 127.287L107.238 134.937C107.351 135.162 107.126 135.5 106.901 135.612L93.6256 139.887C93.4006 140 93.0631 139.775 92.9506 139.55L90.4756 131.9C90.3631 131.562 90.5881 131.337 90.8131 131.225Z" fill="#DCDADA"/><path d="M95.088 93.5375C94.638 94.4375 94.9755 95.675 95.8755 96.125L101.276 98.9375C101.501 99.05 101.838 99.1625 102.176 99.1625C102.401 99.1625 102.626 99.1625 102.738 99.05C103.188 98.9375 103.638 98.6 103.863 98.0375L103.976 97.7C103.076 96.575 101.951 95.45 100.938 94.325L97.563 92.6375C96.7755 92.1875 95.538 92.525 95.088 93.5375Z" fill="#C5305C"/><path d="M66.8506 105.575L72.2506 108.387C72.4756 108.5 72.8131 108.612 73.1506 108.612C73.3756 108.612 73.6006 108.612 73.7131 108.5C74.1631 108.387 74.6131 108.05 74.8381 107.487L77.6506 101.975C78.1006 101.075 77.7631 99.8375 76.7506 99.3875C75.8506 98.9375 74.6131 99.275 74.1631 100.287L72.2506 104L68.5381 102.087C67.6381 101.637 66.4006 101.975 65.9506 102.875C65.5006 103.775 65.8381 105.125 66.8506 105.575Z" fill="#C5305C"/><path d="M80.2382 109.963C79.3382 109.513 78.1007 109.85 77.6507 110.863L75.7382 114.575L72.0257 112.663C71.1257 112.213 69.8882 112.55 69.4382 113.45C68.9882 114.35 69.3257 115.588 70.2257 116.038L75.6257 118.85C75.8507 118.963 76.1882 119.075 76.5257 119.075C76.7507 119.075 76.9757 119.075 77.0882 118.963C77.5382 118.85 77.9882 118.513 78.2132 117.95L81.0256 112.438C81.4756 111.65 81.1382 110.413 80.2382 109.963Z" fill="#C5305C"/><path d="M91.6005 114.237C91.8255 114.237 92.0505 114.237 92.163 114.125C92.613 114.012 93.063 113.675 93.288 113.112L96.1005 107.6C96.5505 106.7 96.213 105.462 95.2005 105.012C94.3005 104.562 93.063 104.9 92.613 105.912L90.7005 109.625L86.988 107.712C86.088 107.262 84.8505 107.6 84.4005 108.5C83.9505 109.4 84.288 110.637 85.188 111.087L90.588 113.9C90.9255 114.125 91.263 114.237 91.6005 114.237Z" fill="#C5305C"/><path d="M87.3255 103.437C87.5505 103.55 87.888 103.662 88.2255 103.662C88.4505 103.662 88.6755 103.662 88.788 103.55C89.238 103.437 89.688 103.1 89.913 102.537L92.7255 97.0248C93.1755 96.1248 92.838 94.8873 91.8255 94.4373C90.9255 93.9873 89.688 94.3248 89.238 95.3373L87.3255 99.0498L83.613 97.2498C82.713 96.7998 81.4755 97.1373 81.0255 98.0373C80.5755 98.9373 80.913 100.175 81.813 100.625L87.3255 103.437Z" fill="#C5305C"/><path d="M105.663 109.625C105.888 109.625 106.113 109.625 106.226 109.512C106.676 109.4 107.126 109.062 107.351 108.5L108.926 105.35C108.251 104 107.463 102.65 106.676 101.3L104.876 105.125L101.051 103.212C100.151 102.762 98.913 103.1 98.463 104C98.013 104.9 98.3505 106.137 99.2505 106.587L104.651 109.4C105.101 109.512 105.326 109.625 105.663 109.625Z" fill="#C5305C"/><path fill-rule="evenodd" clip-rule="evenodd" d="M74.8382 210.65H96.2132C98.3507 210.65 100.151 212.45 100.151 214.588C100.151 216.725 98.3507 218.525 96.2132 218.525H74.8382C72.7007 218.525 70.9007 216.725 70.9007 214.588C70.9007 212.45 72.5882 210.65 74.8382 210.65Z" fill="#3D3D3D"/><path fill-rule="evenodd" clip-rule="evenodd" d="M56.8382 210.65H73.7132C75.8507 210.65 77.6507 212.45 77.6507 214.588C77.6507 216.725 75.8507 218.525 73.7132 218.525H56.8382C54.7007 218.525 52.9007 216.725 52.9007 214.588C52.9007 212.45 54.5882 210.65 56.8382 210.65Z" fill="#3D3D3D"/><path fill-rule="evenodd" clip-rule="evenodd" d="M41.0883 89.375L83.1633 78.9125C84.2883 78.6875 85.4133 79.3625 85.6383 80.375L86.0883 82.175C86.3133 83.3 85.6383 84.425 84.6258 84.65L42.5508 95.225C41.4258 95.45 40.3008 94.775 40.0758 93.7625L39.6258 91.9625C39.2883 90.725 39.9633 89.6 41.0883 89.375Z" fill="#D93868"/><path opacity="0.4641" d="M124.676 225.275H19.2633C17.4633 225.275 16.0008 223.812 16.0008 222.012C16.0008 220.212 17.4633 218.75 19.2633 218.75H124.676C126.476 218.75 127.938 220.212 127.938 222.012C127.938 223.812 126.476 225.275 124.676 225.275Z" fill="#979796"/><path fill-rule="evenodd" clip-rule="evenodd" d="M41.0882 110.525C47.6132 110.525 52.9007 115.813 52.9007 122.338V158.338C52.9007 164.863 47.6132 170.15 41.0882 170.15C34.5632 170.15 29.2757 164.863 29.2757 158.338V122.338C29.2757 115.813 34.5632 110.525 41.0882 110.525Z" fill="#D93868"/><path fill-rule="evenodd" clip-rule="evenodd" d="M68.8757 27.3874C69.5507 28.1749 74.7257 26.9374 76.1882 25.4749C77.6507 24.0124 77.6507 21.5374 76.1882 20.0749C74.7257 18.6124 72.2507 18.6124 70.7882 20.0749C69.3257 21.5374 68.2007 26.5999 68.8757 27.3874Z" fill="#3EACE2"/><path fill-rule="evenodd" clip-rule="evenodd" d="M73.3757 31.0999C73.1507 31.8874 76.0757 34.4749 77.6507 34.8124C79.2257 35.0374 80.6882 34.0249 80.9132 32.4499C81.1382 30.8749 80.1257 29.4124 78.6632 29.1874C77.0882 28.8499 73.4882 30.3124 73.3757 31.0999Z" fill="#3EACE2"/><path fill-rule="evenodd" clip-rule="evenodd" d="M30.5134 47.1877C30.8509 48.2002 27.4759 52.2502 25.4509 52.8127C23.4259 53.4877 21.2884 52.3627 20.6134 50.3377C19.9384 48.3127 21.0634 46.1752 23.0884 45.5002C25.1134 44.9377 30.1759 46.1752 30.5134 47.1877Z" fill="#3EACE2"/><path d="M31.5257 43.0249C32.7683 43.0249 33.7757 42.0175 33.7757 40.7749C33.7757 39.5323 32.7683 38.5249 31.5257 38.5249C30.283 38.5249 29.2757 39.5323 29.2757 40.7749C29.2757 42.0175 30.283 43.0249 31.5257 43.0249Z" fill="#3EACE2"/></svg>